# xmcd
# Track frame offsets:
# 151
# 19502
# 31079
# 44358
# 61371
# 77021
# 94454
# 112525
# 125425
# 139314
# 158363
#
# Disc length: 2352 seconds
# Revision: 0
# Processed by: cddbd v1.4PL0 Copyright (c) Steve Scherf et al.
# Submitted via: VisiTrax 2.9.5.180 - For more info visit www.synapsa.com
#
DISCID=7d092e0b
DTITLE=Marilyn Faye Parney - Unbridled heart
DYEAR=1998
DGENRE=
TTITLE0=Unbridled heart
TTITLE1=The first time (I set eyes on you)
TTITLE2=To say I love you
TTITLE3=Texas in her dreams
TTITLE4=Innocent eyes
TTITLE5=I ain't perfect
TTITLE6=How can I dance with you
TTITLE7=Rose country swing
TTITLE8=Over my head over you
TTITLE9=The best time of my life
TTITLE10=Forever in our hearts
EXTD=
EXTT0=
EXTT1=
EXTT2=
EXTT3=
EXTT4=
EXTT5=
EXTT6=
EXTT7=
EXTT8=
EXTT9=
EXTT10=
PLAYORDER=
